<mxfile host="app.diagrams.net" modified="2023-11-22T16:51:18.180Z" agent="Mozilla/5.0 (Macintosh; Intel Mac OS X 10_15_7) AppleWebKit/537.36 (KHTML, like Gecko) Chrome/104.0.0.0 Safari/537.36" etag="4nTrN4SstQ0V1biUrZrx" version="22.1.3" type="github">
  <diagram id="R2lEEEUBdFMjLlhIrx00" name="Page-1">
    <mxGraphModel dx="1783" dy="1625" grid="1" gridSize="10" guides="1" tooltips="1" connect="1" arrows="1" fold="1" page="1" pageScale="1" pageWidth="850" pageHeight="1100" math="0" shadow="0" extFonts="Permanent Marker^https://fonts.googleapis.com/css?family=Permanent+Marker">
      <root>
        <mxCell id="0" />
        <mxCell id="1" parent="0" />
        <object label="Emisija" id="C-vyLk0tnHw3VtMMgP7b-23">
          <mxCell style="shape=table;startSize=20;container=1;collapsible=1;childLayout=tableLayout;fixedRows=1;rowLines=0;fontStyle=1;align=center;resizeLast=1;" parent="1" vertex="1">
            <mxGeometry x="141" y="130" width="250" height="190" as="geometry">
              <mxRectangle x="150" y="120" width="80" height="30" as="alternateBounds" />
            </mxGeometry>
          </mxCell>
        </object>
        <mxCell id="C-vyLk0tnHw3VtMMgP7b-24" value="" style="shape=partialRectangle;collapsible=0;dropTarget=0;pointerEvents=0;fillColor=none;points=[[0,0.5],[1,0.5]];portConstraint=eastwest;top=0;left=0;right=0;bottom=1;" parent="C-vyLk0tnHw3VtMMgP7b-23" vertex="1">
          <mxGeometry y="20" width="250" height="30" as="geometry" />
        </mxCell>
        <mxCell id="C-vyLk0tnHw3VtMMgP7b-25" value="PK" style="shape=partialRectangle;overflow=hidden;connectable=0;fillColor=none;top=0;left=0;bottom=0;right=0;fontStyle=1;" parent="C-vyLk0tnHw3VtMMgP7b-24" vertex="1">
          <mxGeometry width="30" height="30" as="geometry">
            <mxRectangle width="30" height="30" as="alternateBounds" />
          </mxGeometry>
        </mxCell>
        <mxCell id="C-vyLk0tnHw3VtMMgP7b-26" value="id_emisije char(36) NOT NULL " style="shape=partialRectangle;overflow=hidden;connectable=0;fillColor=none;top=0;left=0;bottom=0;right=0;align=left;spacingLeft=6;fontStyle=5;" parent="C-vyLk0tnHw3VtMMgP7b-24" vertex="1">
          <mxGeometry x="30" width="220" height="30" as="geometry">
            <mxRectangle width="220" height="30" as="alternateBounds" />
          </mxGeometry>
        </mxCell>
        <mxCell id="C-vyLk0tnHw3VtMMgP7b-27" value="" style="shape=partialRectangle;collapsible=0;dropTarget=0;pointerEvents=0;fillColor=none;points=[[0,0.5],[1,0.5]];portConstraint=eastwest;top=0;left=0;right=0;bottom=0;" parent="C-vyLk0tnHw3VtMMgP7b-23" vertex="1">
          <mxGeometry y="50" width="250" height="30" as="geometry" />
        </mxCell>
        <mxCell id="C-vyLk0tnHw3VtMMgP7b-28" value="" style="shape=partialRectangle;overflow=hidden;connectable=0;fillColor=none;top=0;left=0;bottom=0;right=0;" parent="C-vyLk0tnHw3VtMMgP7b-27" vertex="1">
          <mxGeometry width="30" height="30" as="geometry">
            <mxRectangle width="30" height="30" as="alternateBounds" />
          </mxGeometry>
        </mxCell>
        <mxCell id="C-vyLk0tnHw3VtMMgP7b-29" value="naziv_emisije varchar(50) NOT NULL" style="shape=partialRectangle;overflow=hidden;connectable=0;fillColor=none;top=0;left=0;bottom=0;right=0;align=left;spacingLeft=6;" parent="C-vyLk0tnHw3VtMMgP7b-27" vertex="1">
          <mxGeometry x="30" width="220" height="30" as="geometry">
            <mxRectangle width="220" height="30" as="alternateBounds" />
          </mxGeometry>
        </mxCell>
        <mxCell id="sVMZJbU4VuqMhcMFcMYX-47" style="shape=partialRectangle;collapsible=0;dropTarget=0;pointerEvents=0;fillColor=none;points=[[0,0.5],[1,0.5]];portConstraint=eastwest;top=0;left=0;right=0;bottom=0;" vertex="1" parent="C-vyLk0tnHw3VtMMgP7b-23">
          <mxGeometry y="80" width="250" height="30" as="geometry" />
        </mxCell>
        <mxCell id="sVMZJbU4VuqMhcMFcMYX-48" style="shape=partialRectangle;overflow=hidden;connectable=0;fillColor=none;top=0;left=0;bottom=0;right=0;" vertex="1" parent="sVMZJbU4VuqMhcMFcMYX-47">
          <mxGeometry width="30" height="30" as="geometry">
            <mxRectangle width="30" height="30" as="alternateBounds" />
          </mxGeometry>
        </mxCell>
        <mxCell id="sVMZJbU4VuqMhcMFcMYX-49" value="opis_emisije varchar(500) " style="shape=partialRectangle;overflow=hidden;connectable=0;fillColor=none;top=0;left=0;bottom=0;right=0;align=left;spacingLeft=6;" vertex="1" parent="sVMZJbU4VuqMhcMFcMYX-47">
          <mxGeometry x="30" width="220" height="30" as="geometry">
            <mxRectangle width="220" height="30" as="alternateBounds" />
          </mxGeometry>
        </mxCell>
        <mxCell id="sVMZJbU4VuqMhcMFcMYX-50" style="shape=partialRectangle;collapsible=0;dropTarget=0;pointerEvents=0;fillColor=none;points=[[0,0.5],[1,0.5]];portConstraint=eastwest;top=0;left=0;right=0;bottom=0;" vertex="1" parent="C-vyLk0tnHw3VtMMgP7b-23">
          <mxGeometry y="110" width="250" height="30" as="geometry" />
        </mxCell>
        <mxCell id="sVMZJbU4VuqMhcMFcMYX-51" style="shape=partialRectangle;overflow=hidden;connectable=0;fillColor=none;top=0;left=0;bottom=0;right=0;" vertex="1" parent="sVMZJbU4VuqMhcMFcMYX-50">
          <mxGeometry width="30" height="30" as="geometry">
            <mxRectangle width="30" height="30" as="alternateBounds" />
          </mxGeometry>
        </mxCell>
        <mxCell id="sVMZJbU4VuqMhcMFcMYX-52" value="trajanje_emisije int " style="shape=partialRectangle;overflow=hidden;connectable=0;fillColor=none;top=0;left=0;bottom=0;right=0;align=left;spacingLeft=6;" vertex="1" parent="sVMZJbU4VuqMhcMFcMYX-50">
          <mxGeometry x="30" width="220" height="30" as="geometry">
            <mxRectangle width="220" height="30" as="alternateBounds" />
          </mxGeometry>
        </mxCell>
        <mxCell id="sVMZJbU4VuqMhcMFcMYX-53" style="shape=partialRectangle;collapsible=0;dropTarget=0;pointerEvents=0;fillColor=none;points=[[0,0.5],[1,0.5]];portConstraint=eastwest;top=0;left=0;right=0;bottom=0;" vertex="1" parent="C-vyLk0tnHw3VtMMgP7b-23">
          <mxGeometry y="140" width="250" height="30" as="geometry" />
        </mxCell>
        <mxCell id="sVMZJbU4VuqMhcMFcMYX-54" style="shape=partialRectangle;overflow=hidden;connectable=0;fillColor=none;top=0;left=0;bottom=0;right=0;" vertex="1" parent="sVMZJbU4VuqMhcMFcMYX-53">
          <mxGeometry width="30" height="30" as="geometry">
            <mxRectangle width="30" height="30" as="alternateBounds" />
          </mxGeometry>
        </mxCell>
        <mxCell id="sVMZJbU4VuqMhcMFcMYX-55" value="ocjena_emisije int " style="shape=partialRectangle;overflow=hidden;connectable=0;fillColor=none;top=0;left=0;bottom=0;right=0;align=left;spacingLeft=6;" vertex="1" parent="sVMZJbU4VuqMhcMFcMYX-53">
          <mxGeometry x="30" width="220" height="30" as="geometry">
            <mxRectangle width="220" height="30" as="alternateBounds" />
          </mxGeometry>
        </mxCell>
        <mxCell id="sVMZJbU4VuqMhcMFcMYX-56" value="Vrsta emisije" style="shape=table;startSize=30;container=1;collapsible=1;childLayout=tableLayout;fixedRows=1;rowLines=0;fontStyle=1;align=center;resizeLast=1;html=1;" vertex="1" parent="1">
          <mxGeometry x="-280" y="170" width="229" height="90" as="geometry" />
        </mxCell>
        <mxCell id="sVMZJbU4VuqMhcMFcMYX-57" value="" style="shape=tableRow;horizontal=0;startSize=0;swimlaneHead=0;swimlaneBody=0;fillColor=none;collapsible=0;dropTarget=0;points=[[0,0.5],[1,0.5]];portConstraint=eastwest;top=0;left=0;right=0;bottom=1;" vertex="1" parent="sVMZJbU4VuqMhcMFcMYX-56">
          <mxGeometry y="30" width="229" height="30" as="geometry" />
        </mxCell>
        <mxCell id="sVMZJbU4VuqMhcMFcMYX-58" value="PK" style="shape=partialRectangle;connectable=0;fillColor=none;top=0;left=0;bottom=0;right=0;fontStyle=1;overflow=hidden;whiteSpace=wrap;html=1;" vertex="1" parent="sVMZJbU4VuqMhcMFcMYX-57">
          <mxGeometry width="30" height="30" as="geometry">
            <mxRectangle width="30" height="30" as="alternateBounds" />
          </mxGeometry>
        </mxCell>
        <mxCell id="sVMZJbU4VuqMhcMFcMYX-59" value="id_vrste char(36) NOT NULL" style="shape=partialRectangle;connectable=0;fillColor=none;top=0;left=0;bottom=0;right=0;align=left;spacingLeft=6;fontStyle=5;overflow=hidden;whiteSpace=wrap;html=1;" vertex="1" parent="sVMZJbU4VuqMhcMFcMYX-57">
          <mxGeometry x="30" width="199" height="30" as="geometry">
            <mxRectangle width="199" height="30" as="alternateBounds" />
          </mxGeometry>
        </mxCell>
        <mxCell id="sVMZJbU4VuqMhcMFcMYX-60" value="" style="shape=tableRow;horizontal=0;startSize=0;swimlaneHead=0;swimlaneBody=0;fillColor=none;collapsible=0;dropTarget=0;points=[[0,0.5],[1,0.5]];portConstraint=eastwest;top=0;left=0;right=0;bottom=0;" vertex="1" parent="sVMZJbU4VuqMhcMFcMYX-56">
          <mxGeometry y="60" width="229" height="30" as="geometry" />
        </mxCell>
        <mxCell id="sVMZJbU4VuqMhcMFcMYX-61" value="" style="shape=partialRectangle;connectable=0;fillColor=none;top=0;left=0;bottom=0;right=0;editable=1;overflow=hidden;whiteSpace=wrap;html=1;" vertex="1" parent="sVMZJbU4VuqMhcMFcMYX-60">
          <mxGeometry width="30" height="30" as="geometry">
            <mxRectangle width="30" height="30" as="alternateBounds" />
          </mxGeometry>
        </mxCell>
        <mxCell id="sVMZJbU4VuqMhcMFcMYX-62" value="naziv_vrste varchar(50) NOT NULL" style="shape=partialRectangle;connectable=0;fillColor=none;top=0;left=0;bottom=0;right=0;align=left;spacingLeft=6;overflow=hidden;whiteSpace=wrap;html=1;" vertex="1" parent="sVMZJbU4VuqMhcMFcMYX-60">
          <mxGeometry x="30" width="199" height="30" as="geometry">
            <mxRectangle width="199" height="30" as="alternateBounds" />
          </mxGeometry>
        </mxCell>
        <mxCell id="sVMZJbU4VuqMhcMFcMYX-89" value="" style="edgeStyle=entityRelationEdgeStyle;fontSize=12;html=1;endArrow=ERoneToMany;rounded=0;exitX=1;exitY=0.5;exitDx=0;exitDy=0;entryX=0;entryY=0.5;entryDx=0;entryDy=0;" edge="1" parent="1" source="sVMZJbU4VuqMhcMFcMYX-57" target="C-vyLk0tnHw3VtMMgP7b-27">
          <mxGeometry width="100" height="100" relative="1" as="geometry">
            <mxPoint x="-19" y="214.41" as="sourcePoint" />
            <mxPoint x="130" y="220" as="targetPoint" />
            <Array as="points">
              <mxPoint x="11" y="214.41" />
              <mxPoint x="-39" y="134.41" />
              <mxPoint x="11" y="44.41" />
            </Array>
          </mxGeometry>
        </mxCell>
        <mxCell id="sVMZJbU4VuqMhcMFcMYX-113" value="Epizoda" style="shape=table;startSize=30;container=1;collapsible=1;childLayout=tableLayout;fixedRows=1;rowLines=0;fontStyle=1;align=center;resizeLast=1;html=1;" vertex="1" parent="1">
          <mxGeometry x="560" y="130" width="250" height="180" as="geometry" />
        </mxCell>
        <mxCell id="sVMZJbU4VuqMhcMFcMYX-114" value="" style="shape=tableRow;horizontal=0;startSize=0;swimlaneHead=0;swimlaneBody=0;fillColor=none;collapsible=0;dropTarget=0;points=[[0,0.5],[1,0.5]];portConstraint=eastwest;top=0;left=0;right=0;bottom=1;" vertex="1" parent="sVMZJbU4VuqMhcMFcMYX-113">
          <mxGeometry y="30" width="250" height="30" as="geometry" />
        </mxCell>
        <mxCell id="sVMZJbU4VuqMhcMFcMYX-115" value="PK" style="shape=partialRectangle;connectable=0;fillColor=none;top=0;left=0;bottom=0;right=0;fontStyle=1;overflow=hidden;whiteSpace=wrap;html=1;" vertex="1" parent="sVMZJbU4VuqMhcMFcMYX-114">
          <mxGeometry width="30" height="30" as="geometry">
            <mxRectangle width="30" height="30" as="alternateBounds" />
          </mxGeometry>
        </mxCell>
        <mxCell id="sVMZJbU4VuqMhcMFcMYX-116" value="id_epizode char(36) NOT NULL" style="shape=partialRectangle;connectable=0;fillColor=none;top=0;left=0;bottom=0;right=0;align=left;spacingLeft=6;fontStyle=5;overflow=hidden;whiteSpace=wrap;html=1;" vertex="1" parent="sVMZJbU4VuqMhcMFcMYX-114">
          <mxGeometry x="30" width="220" height="30" as="geometry">
            <mxRectangle width="220" height="30" as="alternateBounds" />
          </mxGeometry>
        </mxCell>
        <mxCell id="sVMZJbU4VuqMhcMFcMYX-117" value="" style="shape=tableRow;horizontal=0;startSize=0;swimlaneHead=0;swimlaneBody=0;fillColor=none;collapsible=0;dropTarget=0;points=[[0,0.5],[1,0.5]];portConstraint=eastwest;top=0;left=0;right=0;bottom=0;" vertex="1" parent="sVMZJbU4VuqMhcMFcMYX-113">
          <mxGeometry y="60" width="250" height="30" as="geometry" />
        </mxCell>
        <mxCell id="sVMZJbU4VuqMhcMFcMYX-118" value="" style="shape=partialRectangle;connectable=0;fillColor=none;top=0;left=0;bottom=0;right=0;editable=1;overflow=hidden;whiteSpace=wrap;html=1;" vertex="1" parent="sVMZJbU4VuqMhcMFcMYX-117">
          <mxGeometry width="30" height="30" as="geometry">
            <mxRectangle width="30" height="30" as="alternateBounds" />
          </mxGeometry>
        </mxCell>
        <mxCell id="sVMZJbU4VuqMhcMFcMYX-119" value="naziv_epizode varchar(50) NOT NULL" style="shape=partialRectangle;connectable=0;fillColor=none;top=0;left=0;bottom=0;right=0;align=left;spacingLeft=6;overflow=hidden;whiteSpace=wrap;html=1;" vertex="1" parent="sVMZJbU4VuqMhcMFcMYX-117">
          <mxGeometry x="30" width="220" height="30" as="geometry">
            <mxRectangle width="220" height="30" as="alternateBounds" />
          </mxGeometry>
        </mxCell>
        <mxCell id="sVMZJbU4VuqMhcMFcMYX-120" value="" style="shape=tableRow;horizontal=0;startSize=0;swimlaneHead=0;swimlaneBody=0;fillColor=none;collapsible=0;dropTarget=0;points=[[0,0.5],[1,0.5]];portConstraint=eastwest;top=0;left=0;right=0;bottom=0;" vertex="1" parent="sVMZJbU4VuqMhcMFcMYX-113">
          <mxGeometry y="90" width="250" height="30" as="geometry" />
        </mxCell>
        <mxCell id="sVMZJbU4VuqMhcMFcMYX-121" value="" style="shape=partialRectangle;connectable=0;fillColor=none;top=0;left=0;bottom=0;right=0;editable=1;overflow=hidden;whiteSpace=wrap;html=1;" vertex="1" parent="sVMZJbU4VuqMhcMFcMYX-120">
          <mxGeometry width="30" height="30" as="geometry">
            <mxRectangle width="30" height="30" as="alternateBounds" />
          </mxGeometry>
        </mxCell>
        <mxCell id="sVMZJbU4VuqMhcMFcMYX-122" value="broj_epizode int NOT NULL" style="shape=partialRectangle;connectable=0;fillColor=none;top=0;left=0;bottom=0;right=0;align=left;spacingLeft=6;overflow=hidden;whiteSpace=wrap;html=1;" vertex="1" parent="sVMZJbU4VuqMhcMFcMYX-120">
          <mxGeometry x="30" width="220" height="30" as="geometry">
            <mxRectangle width="220" height="30" as="alternateBounds" />
          </mxGeometry>
        </mxCell>
        <mxCell id="sVMZJbU4VuqMhcMFcMYX-123" value="" style="shape=tableRow;horizontal=0;startSize=0;swimlaneHead=0;swimlaneBody=0;fillColor=none;collapsible=0;dropTarget=0;points=[[0,0.5],[1,0.5]];portConstraint=eastwest;top=0;left=0;right=0;bottom=0;" vertex="1" parent="sVMZJbU4VuqMhcMFcMYX-113">
          <mxGeometry y="120" width="250" height="30" as="geometry" />
        </mxCell>
        <mxCell id="sVMZJbU4VuqMhcMFcMYX-124" value="" style="shape=partialRectangle;connectable=0;fillColor=none;top=0;left=0;bottom=0;right=0;editable=1;overflow=hidden;whiteSpace=wrap;html=1;" vertex="1" parent="sVMZJbU4VuqMhcMFcMYX-123">
          <mxGeometry width="30" height="30" as="geometry">
            <mxRectangle width="30" height="30" as="alternateBounds" />
          </mxGeometry>
        </mxCell>
        <mxCell id="sVMZJbU4VuqMhcMFcMYX-125" value="broj sezone int" style="shape=partialRectangle;connectable=0;fillColor=none;top=0;left=0;bottom=0;right=0;align=left;spacingLeft=6;overflow=hidden;whiteSpace=wrap;html=1;" vertex="1" parent="sVMZJbU4VuqMhcMFcMYX-123">
          <mxGeometry x="30" width="220" height="30" as="geometry">
            <mxRectangle width="220" height="30" as="alternateBounds" />
          </mxGeometry>
        </mxCell>
        <mxCell id="sVMZJbU4VuqMhcMFcMYX-126" style="shape=tableRow;horizontal=0;startSize=0;swimlaneHead=0;swimlaneBody=0;fillColor=none;collapsible=0;dropTarget=0;points=[[0,0.5],[1,0.5]];portConstraint=eastwest;top=0;left=0;right=0;bottom=0;" vertex="1" parent="sVMZJbU4VuqMhcMFcMYX-113">
          <mxGeometry y="150" width="250" height="30" as="geometry" />
        </mxCell>
        <mxCell id="sVMZJbU4VuqMhcMFcMYX-127" style="shape=partialRectangle;connectable=0;fillColor=none;top=0;left=0;bottom=0;right=0;editable=1;overflow=hidden;whiteSpace=wrap;html=1;" vertex="1" parent="sVMZJbU4VuqMhcMFcMYX-126">
          <mxGeometry width="30" height="30" as="geometry">
            <mxRectangle width="30" height="30" as="alternateBounds" />
          </mxGeometry>
        </mxCell>
        <mxCell id="sVMZJbU4VuqMhcMFcMYX-128" value="opis_epizode varchar(500)" style="shape=partialRectangle;connectable=0;fillColor=none;top=0;left=0;bottom=0;right=0;align=left;spacingLeft=6;overflow=hidden;whiteSpace=wrap;html=1;" vertex="1" parent="sVMZJbU4VuqMhcMFcMYX-126">
          <mxGeometry x="30" width="220" height="30" as="geometry">
            <mxRectangle width="220" height="30" as="alternateBounds" />
          </mxGeometry>
        </mxCell>
        <mxCell id="sVMZJbU4VuqMhcMFcMYX-129" value="" style="edgeStyle=entityRelationEdgeStyle;fontSize=12;html=1;endArrow=ERoneToMany;rounded=0;entryX=0;entryY=0.5;entryDx=0;entryDy=0;exitX=1.006;exitY=0.916;exitDx=0;exitDy=0;exitPerimeter=0;" edge="1" parent="1" source="C-vyLk0tnHw3VtMMgP7b-27" target="sVMZJbU4VuqMhcMFcMYX-117">
          <mxGeometry width="100" height="100" relative="1" as="geometry">
            <mxPoint x="400" y="209" as="sourcePoint" />
            <mxPoint x="590" y="209.41" as="targetPoint" />
          </mxGeometry>
        </mxCell>
        <mxCell id="sVMZJbU4VuqMhcMFcMYX-130" value="Urednik" style="shape=table;startSize=30;container=1;collapsible=1;childLayout=tableLayout;fixedRows=1;rowLines=0;fontStyle=1;align=center;resizeLast=1;html=1;" vertex="1" parent="1">
          <mxGeometry x="-330" y="560" width="274" height="150" as="geometry" />
        </mxCell>
        <mxCell id="sVMZJbU4VuqMhcMFcMYX-131" value="" style="shape=tableRow;horizontal=0;startSize=0;swimlaneHead=0;swimlaneBody=0;fillColor=none;collapsible=0;dropTarget=0;points=[[0,0.5],[1,0.5]];portConstraint=eastwest;top=0;left=0;right=0;bottom=1;" vertex="1" parent="sVMZJbU4VuqMhcMFcMYX-130">
          <mxGeometry y="30" width="274" height="30" as="geometry" />
        </mxCell>
        <mxCell id="sVMZJbU4VuqMhcMFcMYX-132" value="PK" style="shape=partialRectangle;connectable=0;fillColor=none;top=0;left=0;bottom=0;right=0;fontStyle=1;overflow=hidden;whiteSpace=wrap;html=1;" vertex="1" parent="sVMZJbU4VuqMhcMFcMYX-131">
          <mxGeometry width="30" height="30" as="geometry">
            <mxRectangle width="30" height="30" as="alternateBounds" />
          </mxGeometry>
        </mxCell>
        <mxCell id="sVMZJbU4VuqMhcMFcMYX-133" value="id_urednika char(36) NOT NULL" style="shape=partialRectangle;connectable=0;fillColor=none;top=0;left=0;bottom=0;right=0;align=left;spacingLeft=6;fontStyle=5;overflow=hidden;whiteSpace=wrap;html=1;" vertex="1" parent="sVMZJbU4VuqMhcMFcMYX-131">
          <mxGeometry x="30" width="244" height="30" as="geometry">
            <mxRectangle width="244" height="30" as="alternateBounds" />
          </mxGeometry>
        </mxCell>
        <mxCell id="sVMZJbU4VuqMhcMFcMYX-134" value="" style="shape=tableRow;horizontal=0;startSize=0;swimlaneHead=0;swimlaneBody=0;fillColor=none;collapsible=0;dropTarget=0;points=[[0,0.5],[1,0.5]];portConstraint=eastwest;top=0;left=0;right=0;bottom=0;" vertex="1" parent="sVMZJbU4VuqMhcMFcMYX-130">
          <mxGeometry y="60" width="274" height="30" as="geometry" />
        </mxCell>
        <mxCell id="sVMZJbU4VuqMhcMFcMYX-135" value="" style="shape=partialRectangle;connectable=0;fillColor=none;top=0;left=0;bottom=0;right=0;editable=1;overflow=hidden;whiteSpace=wrap;html=1;" vertex="1" parent="sVMZJbU4VuqMhcMFcMYX-134">
          <mxGeometry width="30" height="30" as="geometry">
            <mxRectangle width="30" height="30" as="alternateBounds" />
          </mxGeometry>
        </mxCell>
        <mxCell id="sVMZJbU4VuqMhcMFcMYX-136" value="ime_urednika varchar(20) NOT NULL" style="shape=partialRectangle;connectable=0;fillColor=none;top=0;left=0;bottom=0;right=0;align=left;spacingLeft=6;overflow=hidden;whiteSpace=wrap;html=1;" vertex="1" parent="sVMZJbU4VuqMhcMFcMYX-134">
          <mxGeometry x="30" width="244" height="30" as="geometry">
            <mxRectangle width="244" height="30" as="alternateBounds" />
          </mxGeometry>
        </mxCell>
        <mxCell id="sVMZJbU4VuqMhcMFcMYX-137" value="" style="shape=tableRow;horizontal=0;startSize=0;swimlaneHead=0;swimlaneBody=0;fillColor=none;collapsible=0;dropTarget=0;points=[[0,0.5],[1,0.5]];portConstraint=eastwest;top=0;left=0;right=0;bottom=0;" vertex="1" parent="sVMZJbU4VuqMhcMFcMYX-130">
          <mxGeometry y="90" width="274" height="30" as="geometry" />
        </mxCell>
        <mxCell id="sVMZJbU4VuqMhcMFcMYX-138" value="" style="shape=partialRectangle;connectable=0;fillColor=none;top=0;left=0;bottom=0;right=0;editable=1;overflow=hidden;whiteSpace=wrap;html=1;" vertex="1" parent="sVMZJbU4VuqMhcMFcMYX-137">
          <mxGeometry width="30" height="30" as="geometry">
            <mxRectangle width="30" height="30" as="alternateBounds" />
          </mxGeometry>
        </mxCell>
        <mxCell id="sVMZJbU4VuqMhcMFcMYX-139" value="prezime_urednika varchar(20) NOT NULL" style="shape=partialRectangle;connectable=0;fillColor=none;top=0;left=0;bottom=0;right=0;align=left;spacingLeft=6;overflow=hidden;whiteSpace=wrap;html=1;" vertex="1" parent="sVMZJbU4VuqMhcMFcMYX-137">
          <mxGeometry x="30" width="244" height="30" as="geometry">
            <mxRectangle width="244" height="30" as="alternateBounds" />
          </mxGeometry>
        </mxCell>
        <mxCell id="sVMZJbU4VuqMhcMFcMYX-140" value="" style="shape=tableRow;horizontal=0;startSize=0;swimlaneHead=0;swimlaneBody=0;fillColor=none;collapsible=0;dropTarget=0;points=[[0,0.5],[1,0.5]];portConstraint=eastwest;top=0;left=0;right=0;bottom=0;" vertex="1" parent="sVMZJbU4VuqMhcMFcMYX-130">
          <mxGeometry y="120" width="274" height="30" as="geometry" />
        </mxCell>
        <mxCell id="sVMZJbU4VuqMhcMFcMYX-141" value="" style="shape=partialRectangle;connectable=0;fillColor=none;top=0;left=0;bottom=0;right=0;editable=1;overflow=hidden;whiteSpace=wrap;html=1;" vertex="1" parent="sVMZJbU4VuqMhcMFcMYX-140">
          <mxGeometry width="30" height="30" as="geometry">
            <mxRectangle width="30" height="30" as="alternateBounds" />
          </mxGeometry>
        </mxCell>
        <mxCell id="sVMZJbU4VuqMhcMFcMYX-142" value="kontakt_telefon_urednika varchar(20)" style="shape=partialRectangle;connectable=0;fillColor=none;top=0;left=0;bottom=0;right=0;align=left;spacingLeft=6;overflow=hidden;whiteSpace=wrap;html=1;" vertex="1" parent="sVMZJbU4VuqMhcMFcMYX-140">
          <mxGeometry x="30" width="244" height="30" as="geometry">
            <mxRectangle width="244" height="30" as="alternateBounds" />
          </mxGeometry>
        </mxCell>
        <mxCell id="sVMZJbU4VuqMhcMFcMYX-143" value="Voditelj" style="shape=table;startSize=30;container=1;collapsible=1;childLayout=tableLayout;fixedRows=1;rowLines=0;fontStyle=1;align=center;resizeLast=1;html=1;" vertex="1" parent="1">
          <mxGeometry x="129" y="560" width="274" height="150" as="geometry" />
        </mxCell>
        <mxCell id="sVMZJbU4VuqMhcMFcMYX-144" value="" style="shape=tableRow;horizontal=0;startSize=0;swimlaneHead=0;swimlaneBody=0;fillColor=none;collapsible=0;dropTarget=0;points=[[0,0.5],[1,0.5]];portConstraint=eastwest;top=0;left=0;right=0;bottom=1;" vertex="1" parent="sVMZJbU4VuqMhcMFcMYX-143">
          <mxGeometry y="30" width="274" height="30" as="geometry" />
        </mxCell>
        <mxCell id="sVMZJbU4VuqMhcMFcMYX-145" value="PK" style="shape=partialRectangle;connectable=0;fillColor=none;top=0;left=0;bottom=0;right=0;fontStyle=1;overflow=hidden;whiteSpace=wrap;html=1;" vertex="1" parent="sVMZJbU4VuqMhcMFcMYX-144">
          <mxGeometry width="30" height="30" as="geometry">
            <mxRectangle width="30" height="30" as="alternateBounds" />
          </mxGeometry>
        </mxCell>
        <mxCell id="sVMZJbU4VuqMhcMFcMYX-146" value="id_voditelja char(36) NOT NULL" style="shape=partialRectangle;connectable=0;fillColor=none;top=0;left=0;bottom=0;right=0;align=left;spacingLeft=6;fontStyle=5;overflow=hidden;whiteSpace=wrap;html=1;" vertex="1" parent="sVMZJbU4VuqMhcMFcMYX-144">
          <mxGeometry x="30" width="244" height="30" as="geometry">
            <mxRectangle width="244" height="30" as="alternateBounds" />
          </mxGeometry>
        </mxCell>
        <mxCell id="sVMZJbU4VuqMhcMFcMYX-147" value="" style="shape=tableRow;horizontal=0;startSize=0;swimlaneHead=0;swimlaneBody=0;fillColor=none;collapsible=0;dropTarget=0;points=[[0,0.5],[1,0.5]];portConstraint=eastwest;top=0;left=0;right=0;bottom=0;" vertex="1" parent="sVMZJbU4VuqMhcMFcMYX-143">
          <mxGeometry y="60" width="274" height="30" as="geometry" />
        </mxCell>
        <mxCell id="sVMZJbU4VuqMhcMFcMYX-148" value="" style="shape=partialRectangle;connectable=0;fillColor=none;top=0;left=0;bottom=0;right=0;editable=1;overflow=hidden;whiteSpace=wrap;html=1;" vertex="1" parent="sVMZJbU4VuqMhcMFcMYX-147">
          <mxGeometry width="30" height="30" as="geometry">
            <mxRectangle width="30" height="30" as="alternateBounds" />
          </mxGeometry>
        </mxCell>
        <mxCell id="sVMZJbU4VuqMhcMFcMYX-149" value="ime_voditelja varchar(20) NOT NULL" style="shape=partialRectangle;connectable=0;fillColor=none;top=0;left=0;bottom=0;right=0;align=left;spacingLeft=6;overflow=hidden;whiteSpace=wrap;html=1;" vertex="1" parent="sVMZJbU4VuqMhcMFcMYX-147">
          <mxGeometry x="30" width="244" height="30" as="geometry">
            <mxRectangle width="244" height="30" as="alternateBounds" />
          </mxGeometry>
        </mxCell>
        <mxCell id="sVMZJbU4VuqMhcMFcMYX-150" value="" style="shape=tableRow;horizontal=0;startSize=0;swimlaneHead=0;swimlaneBody=0;fillColor=none;collapsible=0;dropTarget=0;points=[[0,0.5],[1,0.5]];portConstraint=eastwest;top=0;left=0;right=0;bottom=0;" vertex="1" parent="sVMZJbU4VuqMhcMFcMYX-143">
          <mxGeometry y="90" width="274" height="30" as="geometry" />
        </mxCell>
        <mxCell id="sVMZJbU4VuqMhcMFcMYX-151" value="" style="shape=partialRectangle;connectable=0;fillColor=none;top=0;left=0;bottom=0;right=0;editable=1;overflow=hidden;whiteSpace=wrap;html=1;" vertex="1" parent="sVMZJbU4VuqMhcMFcMYX-150">
          <mxGeometry width="30" height="30" as="geometry">
            <mxRectangle width="30" height="30" as="alternateBounds" />
          </mxGeometry>
        </mxCell>
        <mxCell id="sVMZJbU4VuqMhcMFcMYX-152" value="prezime_voditelja varchar(20) NOT NULL" style="shape=partialRectangle;connectable=0;fillColor=none;top=0;left=0;bottom=0;right=0;align=left;spacingLeft=6;overflow=hidden;whiteSpace=wrap;html=1;" vertex="1" parent="sVMZJbU4VuqMhcMFcMYX-150">
          <mxGeometry x="30" width="244" height="30" as="geometry">
            <mxRectangle width="244" height="30" as="alternateBounds" />
          </mxGeometry>
        </mxCell>
        <mxCell id="sVMZJbU4VuqMhcMFcMYX-153" value="" style="shape=tableRow;horizontal=0;startSize=0;swimlaneHead=0;swimlaneBody=0;fillColor=none;collapsible=0;dropTarget=0;points=[[0,0.5],[1,0.5]];portConstraint=eastwest;top=0;left=0;right=0;bottom=0;" vertex="1" parent="sVMZJbU4VuqMhcMFcMYX-143">
          <mxGeometry y="120" width="274" height="30" as="geometry" />
        </mxCell>
        <mxCell id="sVMZJbU4VuqMhcMFcMYX-154" value="" style="shape=partialRectangle;connectable=0;fillColor=none;top=0;left=0;bottom=0;right=0;editable=1;overflow=hidden;whiteSpace=wrap;html=1;" vertex="1" parent="sVMZJbU4VuqMhcMFcMYX-153">
          <mxGeometry width="30" height="30" as="geometry">
            <mxRectangle width="30" height="30" as="alternateBounds" />
          </mxGeometry>
        </mxCell>
        <mxCell id="sVMZJbU4VuqMhcMFcMYX-155" value="kontakt_telefon_voditelja varchar(20)" style="shape=partialRectangle;connectable=0;fillColor=none;top=0;left=0;bottom=0;right=0;align=left;spacingLeft=6;overflow=hidden;whiteSpace=wrap;html=1;" vertex="1" parent="sVMZJbU4VuqMhcMFcMYX-153">
          <mxGeometry x="30" width="244" height="30" as="geometry">
            <mxRectangle width="244" height="30" as="alternateBounds" />
          </mxGeometry>
        </mxCell>
        <mxCell id="sVMZJbU4VuqMhcMFcMYX-156" value="Gost" style="shape=table;startSize=30;container=1;collapsible=1;childLayout=tableLayout;fixedRows=1;rowLines=0;fontStyle=1;align=center;resizeLast=1;html=1;" vertex="1" parent="1">
          <mxGeometry x="560" y="545" width="274" height="180" as="geometry" />
        </mxCell>
        <mxCell id="sVMZJbU4VuqMhcMFcMYX-157" value="" style="shape=tableRow;horizontal=0;startSize=0;swimlaneHead=0;swimlaneBody=0;fillColor=none;collapsible=0;dropTarget=0;points=[[0,0.5],[1,0.5]];portConstraint=eastwest;top=0;left=0;right=0;bottom=1;" vertex="1" parent="sVMZJbU4VuqMhcMFcMYX-156">
          <mxGeometry y="30" width="274" height="30" as="geometry" />
        </mxCell>
        <mxCell id="sVMZJbU4VuqMhcMFcMYX-158" value="PK" style="shape=partialRectangle;connectable=0;fillColor=none;top=0;left=0;bottom=0;right=0;fontStyle=1;overflow=hidden;whiteSpace=wrap;html=1;" vertex="1" parent="sVMZJbU4VuqMhcMFcMYX-157">
          <mxGeometry width="30" height="30" as="geometry">
            <mxRectangle width="30" height="30" as="alternateBounds" />
          </mxGeometry>
        </mxCell>
        <mxCell id="sVMZJbU4VuqMhcMFcMYX-159" value="id_gosta char(36) NOT NULL" style="shape=partialRectangle;connectable=0;fillColor=none;top=0;left=0;bottom=0;right=0;align=left;spacingLeft=6;fontStyle=5;overflow=hidden;whiteSpace=wrap;html=1;" vertex="1" parent="sVMZJbU4VuqMhcMFcMYX-157">
          <mxGeometry x="30" width="244" height="30" as="geometry">
            <mxRectangle width="244" height="30" as="alternateBounds" />
          </mxGeometry>
        </mxCell>
        <mxCell id="sVMZJbU4VuqMhcMFcMYX-160" value="" style="shape=tableRow;horizontal=0;startSize=0;swimlaneHead=0;swimlaneBody=0;fillColor=none;collapsible=0;dropTarget=0;points=[[0,0.5],[1,0.5]];portConstraint=eastwest;top=0;left=0;right=0;bottom=0;" vertex="1" parent="sVMZJbU4VuqMhcMFcMYX-156">
          <mxGeometry y="60" width="274" height="30" as="geometry" />
        </mxCell>
        <mxCell id="sVMZJbU4VuqMhcMFcMYX-161" value="" style="shape=partialRectangle;connectable=0;fillColor=none;top=0;left=0;bottom=0;right=0;editable=1;overflow=hidden;whiteSpace=wrap;html=1;" vertex="1" parent="sVMZJbU4VuqMhcMFcMYX-160">
          <mxGeometry width="30" height="30" as="geometry">
            <mxRectangle width="30" height="30" as="alternateBounds" />
          </mxGeometry>
        </mxCell>
        <mxCell id="sVMZJbU4VuqMhcMFcMYX-162" value="ime_gosta varchar(20) NOT NULL" style="shape=partialRectangle;connectable=0;fillColor=none;top=0;left=0;bottom=0;right=0;align=left;spacingLeft=6;overflow=hidden;whiteSpace=wrap;html=1;" vertex="1" parent="sVMZJbU4VuqMhcMFcMYX-160">
          <mxGeometry x="30" width="244" height="30" as="geometry">
            <mxRectangle width="244" height="30" as="alternateBounds" />
          </mxGeometry>
        </mxCell>
        <mxCell id="sVMZJbU4VuqMhcMFcMYX-163" value="" style="shape=tableRow;horizontal=0;startSize=0;swimlaneHead=0;swimlaneBody=0;fillColor=none;collapsible=0;dropTarget=0;points=[[0,0.5],[1,0.5]];portConstraint=eastwest;top=0;left=0;right=0;bottom=0;" vertex="1" parent="sVMZJbU4VuqMhcMFcMYX-156">
          <mxGeometry y="90" width="274" height="30" as="geometry" />
        </mxCell>
        <mxCell id="sVMZJbU4VuqMhcMFcMYX-164" value="" style="shape=partialRectangle;connectable=0;fillColor=none;top=0;left=0;bottom=0;right=0;editable=1;overflow=hidden;whiteSpace=wrap;html=1;" vertex="1" parent="sVMZJbU4VuqMhcMFcMYX-163">
          <mxGeometry width="30" height="30" as="geometry">
            <mxRectangle width="30" height="30" as="alternateBounds" />
          </mxGeometry>
        </mxCell>
        <mxCell id="sVMZJbU4VuqMhcMFcMYX-165" value="prezime_gosta varchar(20) NOT NULL" style="shape=partialRectangle;connectable=0;fillColor=none;top=0;left=0;bottom=0;right=0;align=left;spacingLeft=6;overflow=hidden;whiteSpace=wrap;html=1;" vertex="1" parent="sVMZJbU4VuqMhcMFcMYX-163">
          <mxGeometry x="30" width="244" height="30" as="geometry">
            <mxRectangle width="244" height="30" as="alternateBounds" />
          </mxGeometry>
        </mxCell>
        <mxCell id="sVMZJbU4VuqMhcMFcMYX-172" style="shape=tableRow;horizontal=0;startSize=0;swimlaneHead=0;swimlaneBody=0;fillColor=none;collapsible=0;dropTarget=0;points=[[0,0.5],[1,0.5]];portConstraint=eastwest;top=0;left=0;right=0;bottom=0;" vertex="1" parent="sVMZJbU4VuqMhcMFcMYX-156">
          <mxGeometry y="120" width="274" height="30" as="geometry" />
        </mxCell>
        <mxCell id="sVMZJbU4VuqMhcMFcMYX-173" style="shape=partialRectangle;connectable=0;fillColor=none;top=0;left=0;bottom=0;right=0;editable=1;overflow=hidden;whiteSpace=wrap;html=1;" vertex="1" parent="sVMZJbU4VuqMhcMFcMYX-172">
          <mxGeometry width="30" height="30" as="geometry">
            <mxRectangle width="30" height="30" as="alternateBounds" />
          </mxGeometry>
        </mxCell>
        <mxCell id="sVMZJbU4VuqMhcMFcMYX-174" value="biografija_gosta varchar(500) NOT NULL" style="shape=partialRectangle;connectable=0;fillColor=none;top=0;left=0;bottom=0;right=0;align=left;spacingLeft=6;overflow=hidden;whiteSpace=wrap;html=1;" vertex="1" parent="sVMZJbU4VuqMhcMFcMYX-172">
          <mxGeometry x="30" width="244" height="30" as="geometry">
            <mxRectangle width="244" height="30" as="alternateBounds" />
          </mxGeometry>
        </mxCell>
        <mxCell id="sVMZJbU4VuqMhcMFcMYX-166" value="" style="shape=tableRow;horizontal=0;startSize=0;swimlaneHead=0;swimlaneBody=0;fillColor=none;collapsible=0;dropTarget=0;points=[[0,0.5],[1,0.5]];portConstraint=eastwest;top=0;left=0;right=0;bottom=0;" vertex="1" parent="sVMZJbU4VuqMhcMFcMYX-156">
          <mxGeometry y="150" width="274" height="30" as="geometry" />
        </mxCell>
        <mxCell id="sVMZJbU4VuqMhcMFcMYX-167" value="" style="shape=partialRectangle;connectable=0;fillColor=none;top=0;left=0;bottom=0;right=0;editable=1;overflow=hidden;whiteSpace=wrap;html=1;" vertex="1" parent="sVMZJbU4VuqMhcMFcMYX-166">
          <mxGeometry width="30" height="30" as="geometry">
            <mxRectangle width="30" height="30" as="alternateBounds" />
          </mxGeometry>
        </mxCell>
        <mxCell id="sVMZJbU4VuqMhcMFcMYX-168" value="kontakt_telefon_gosta varchar(20)" style="shape=partialRectangle;connectable=0;fillColor=none;top=0;left=0;bottom=0;right=0;align=left;spacingLeft=6;overflow=hidden;whiteSpace=wrap;html=1;" vertex="1" parent="sVMZJbU4VuqMhcMFcMYX-166">
          <mxGeometry x="30" width="244" height="30" as="geometry">
            <mxRectangle width="244" height="30" as="alternateBounds" />
          </mxGeometry>
        </mxCell>
        <mxCell id="sVMZJbU4VuqMhcMFcMYX-175" value="" style="edgeStyle=entityRelationEdgeStyle;fontSize=12;html=1;endArrow=ERoneToMany;rounded=0;exitX=0.5;exitY=0;exitDx=0;exitDy=0;entryX=0.5;entryY=1;entryDx=0;entryDy=0;" edge="1" parent="1" source="sVMZJbU4VuqMhcMFcMYX-143" target="C-vyLk0tnHw3VtMMgP7b-23">
          <mxGeometry width="100" height="100" relative="1" as="geometry">
            <mxPoint x="220" y="500" as="sourcePoint" />
            <mxPoint x="266" y="340" as="targetPoint" />
          </mxGeometry>
        </mxCell>
        <mxCell id="sVMZJbU4VuqMhcMFcMYX-176" value="" style="edgeStyle=entityRelationEdgeStyle;fontSize=12;html=1;endArrow=ERoneToMany;rounded=0;exitX=0.5;exitY=0;exitDx=0;exitDy=0;entryX=0;entryY=1;entryDx=0;entryDy=0;" edge="1" parent="1" source="sVMZJbU4VuqMhcMFcMYX-130" target="C-vyLk0tnHw3VtMMgP7b-23">
          <mxGeometry width="100" height="100" relative="1" as="geometry">
            <mxPoint x="-170" y="530" as="sourcePoint" />
            <mxPoint x="-70" y="430" as="targetPoint" />
          </mxGeometry>
        </mxCell>
        <mxCell id="sVMZJbU4VuqMhcMFcMYX-177" value="" style="edgeStyle=entityRelationEdgeStyle;fontSize=12;html=1;endArrow=ERoneToMany;rounded=0;exitX=0.5;exitY=0;exitDx=0;exitDy=0;entryX=1;entryY=1;entryDx=0;entryDy=0;" edge="1" parent="1" source="sVMZJbU4VuqMhcMFcMYX-156" target="C-vyLk0tnHw3VtMMgP7b-23">
          <mxGeometry width="100" height="100" relative="1" as="geometry">
            <mxPoint x="490" y="510" as="sourcePoint" />
            <mxPoint x="590" y="410" as="targetPoint" />
          </mxGeometry>
        </mxCell>
        <mxCell id="sVMZJbU4VuqMhcMFcMYX-178" value="Termin emitovanja" style="shape=table;startSize=30;container=1;collapsible=1;childLayout=tableLayout;fixedRows=1;rowLines=0;fontStyle=1;align=center;resizeLast=1;html=1;points=[[0,0,0,0,0],[0,0.25,0,0,0],[0,0.5,0,0,0],[0,0.75,0,0,0],[0,1,0,0,0],[0.25,0,0,0,0],[0.25,1,0,0,0],[0.5,0,0,0,0],[0.5,1,0,0,0],[0.75,0,0,0,0],[0.75,1,0,0,0],[1,0,0,0,0],[1,0.25,0,0,0],[1,0.5,0,0,0],[1,0.75,0,0,0],[1,1,0,0,0]];" vertex="1" parent="1">
          <mxGeometry x="-56" y="-140" width="304" height="150.00000000000023" as="geometry" />
        </mxCell>
        <mxCell id="sVMZJbU4VuqMhcMFcMYX-179" value="" style="shape=tableRow;horizontal=0;startSize=0;swimlaneHead=0;swimlaneBody=0;fillColor=none;collapsible=0;dropTarget=0;points=[[0,0.5],[1,0.5]];portConstraint=eastwest;top=0;left=0;right=0;bottom=1;" vertex="1" parent="sVMZJbU4VuqMhcMFcMYX-178">
          <mxGeometry y="30" width="304" height="30" as="geometry" />
        </mxCell>
        <mxCell id="sVMZJbU4VuqMhcMFcMYX-180" value="PK" style="shape=partialRectangle;connectable=0;fillColor=none;top=0;left=0;bottom=0;right=0;fontStyle=1;overflow=hidden;whiteSpace=wrap;html=1;" vertex="1" parent="sVMZJbU4VuqMhcMFcMYX-179">
          <mxGeometry width="30" height="30" as="geometry">
            <mxRectangle width="30" height="30" as="alternateBounds" />
          </mxGeometry>
        </mxCell>
        <mxCell id="sVMZJbU4VuqMhcMFcMYX-181" value="id_termina_emitovanja char(36) NOT NULL" style="shape=partialRectangle;connectable=0;fillColor=none;top=0;left=0;bottom=0;right=0;align=left;spacingLeft=6;fontStyle=5;overflow=hidden;whiteSpace=wrap;html=1;" vertex="1" parent="sVMZJbU4VuqMhcMFcMYX-179">
          <mxGeometry x="30" width="274" height="30" as="geometry">
            <mxRectangle width="274" height="30" as="alternateBounds" />
          </mxGeometry>
        </mxCell>
        <mxCell id="sVMZJbU4VuqMhcMFcMYX-182" value="" style="shape=tableRow;horizontal=0;startSize=0;swimlaneHead=0;swimlaneBody=0;fillColor=none;collapsible=0;dropTarget=0;points=[[0,0.5],[1,0.5]];portConstraint=eastwest;top=0;left=0;right=0;bottom=0;" vertex="1" parent="sVMZJbU4VuqMhcMFcMYX-178">
          <mxGeometry y="60" width="304" height="30" as="geometry" />
        </mxCell>
        <mxCell id="sVMZJbU4VuqMhcMFcMYX-183" value="" style="shape=partialRectangle;connectable=0;fillColor=none;top=0;left=0;bottom=0;right=0;editable=1;overflow=hidden;whiteSpace=wrap;html=1;" vertex="1" parent="sVMZJbU4VuqMhcMFcMYX-182">
          <mxGeometry width="30" height="30" as="geometry">
            <mxRectangle width="30" height="30" as="alternateBounds" />
          </mxGeometry>
        </mxCell>
        <mxCell id="sVMZJbU4VuqMhcMFcMYX-184" value="datum_emitovanja date NOT NULL" style="shape=partialRectangle;connectable=0;fillColor=none;top=0;left=0;bottom=0;right=0;align=left;spacingLeft=6;overflow=hidden;whiteSpace=wrap;html=1;" vertex="1" parent="sVMZJbU4VuqMhcMFcMYX-182">
          <mxGeometry x="30" width="274" height="30" as="geometry">
            <mxRectangle width="274" height="30" as="alternateBounds" />
          </mxGeometry>
        </mxCell>
        <mxCell id="sVMZJbU4VuqMhcMFcMYX-185" value="" style="shape=tableRow;horizontal=0;startSize=0;swimlaneHead=0;swimlaneBody=0;fillColor=none;collapsible=0;dropTarget=0;points=[[0,0.5],[1,0.5]];portConstraint=eastwest;top=0;left=0;right=0;bottom=0;" vertex="1" parent="sVMZJbU4VuqMhcMFcMYX-178">
          <mxGeometry y="90" width="304" height="30" as="geometry" />
        </mxCell>
        <mxCell id="sVMZJbU4VuqMhcMFcMYX-186" value="" style="shape=partialRectangle;connectable=0;fillColor=none;top=0;left=0;bottom=0;right=0;editable=1;overflow=hidden;whiteSpace=wrap;html=1;" vertex="1" parent="sVMZJbU4VuqMhcMFcMYX-185">
          <mxGeometry width="30" height="30" as="geometry">
            <mxRectangle width="30" height="30" as="alternateBounds" />
          </mxGeometry>
        </mxCell>
        <mxCell id="sVMZJbU4VuqMhcMFcMYX-187" value="vrijeme_pocetka_emisije time(0) NOT NULL" style="shape=partialRectangle;connectable=0;fillColor=none;top=0;left=0;bottom=0;right=0;align=left;spacingLeft=6;overflow=hidden;whiteSpace=wrap;html=1;" vertex="1" parent="sVMZJbU4VuqMhcMFcMYX-185">
          <mxGeometry x="30" width="274" height="30" as="geometry">
            <mxRectangle width="274" height="30" as="alternateBounds" />
          </mxGeometry>
        </mxCell>
        <mxCell id="sVMZJbU4VuqMhcMFcMYX-188" value="" style="shape=tableRow;horizontal=0;startSize=0;swimlaneHead=0;swimlaneBody=0;fillColor=none;collapsible=0;dropTarget=0;points=[[0,0.5],[1,0.5]];portConstraint=eastwest;top=0;left=0;right=0;bottom=0;" vertex="1" parent="sVMZJbU4VuqMhcMFcMYX-178">
          <mxGeometry y="120" width="304" height="30" as="geometry" />
        </mxCell>
        <mxCell id="sVMZJbU4VuqMhcMFcMYX-189" value="" style="shape=partialRectangle;connectable=0;fillColor=none;top=0;left=0;bottom=0;right=0;editable=1;overflow=hidden;whiteSpace=wrap;html=1;" vertex="1" parent="sVMZJbU4VuqMhcMFcMYX-188">
          <mxGeometry width="30" height="30" as="geometry">
            <mxRectangle width="30" height="30" as="alternateBounds" />
          </mxGeometry>
        </mxCell>
        <mxCell id="sVMZJbU4VuqMhcMFcMYX-190" value="vrijeme_zavrsetka_emisije time(0) NOT NULL" style="shape=partialRectangle;connectable=0;fillColor=none;top=0;left=0;bottom=0;right=0;align=left;spacingLeft=6;overflow=hidden;whiteSpace=wrap;html=1;" vertex="1" parent="sVMZJbU4VuqMhcMFcMYX-188">
          <mxGeometry x="30" width="274" height="30" as="geometry">
            <mxRectangle width="274" height="30" as="alternateBounds" />
          </mxGeometry>
        </mxCell>
        <mxCell id="sVMZJbU4VuqMhcMFcMYX-191" value="" style="edgeStyle=entityRelationEdgeStyle;fontSize=12;html=1;endArrow=ERoneToMany;rounded=0;exitX=0.5;exitY=0;exitDx=0;exitDy=0;entryX=1;entryY=0.5;entryDx=0;entryDy=0;" edge="1" parent="1" source="C-vyLk0tnHw3VtMMgP7b-23" target="sVMZJbU4VuqMhcMFcMYX-188">
          <mxGeometry width="100" height="100" relative="1" as="geometry">
            <mxPoint x="29" y="110" as="sourcePoint" />
            <mxPoint x="330" y="-60" as="targetPoint" />
          </mxGeometry>
        </mxCell>
        <mxCell id="sVMZJbU4VuqMhcMFcMYX-192" value="&lt;b&gt;Pripada&lt;/b&gt;" style="text;html=1;align=center;verticalAlign=middle;resizable=0;points=[];autosize=1;strokeColor=none;fillColor=none;" vertex="1" parent="1">
          <mxGeometry x="-5" y="178" width="70" height="30" as="geometry" />
        </mxCell>
        <mxCell id="sVMZJbU4VuqMhcMFcMYX-193" value="&lt;b&gt;Se emituje&lt;/b&gt;" style="text;html=1;align=center;verticalAlign=middle;resizable=0;points=[];autosize=1;strokeColor=none;fillColor=none;" vertex="1" parent="1">
          <mxGeometry x="200" y="30" width="80" height="30" as="geometry" />
        </mxCell>
        <mxCell id="sVMZJbU4VuqMhcMFcMYX-194" value="&lt;b&gt;Ima&lt;/b&gt;" style="text;html=1;align=center;verticalAlign=middle;resizable=0;points=[];autosize=1;strokeColor=none;fillColor=none;" vertex="1" parent="1">
          <mxGeometry x="440" y="178" width="40" height="30" as="geometry" />
        </mxCell>
        <mxCell id="sVMZJbU4VuqMhcMFcMYX-195" value="&lt;b&gt;Uređuje&lt;/b&gt;" style="text;html=1;align=center;verticalAlign=middle;resizable=0;points=[];autosize=1;strokeColor=none;fillColor=none;" vertex="1" parent="1">
          <mxGeometry x="-80" y="410" width="70" height="30" as="geometry" />
        </mxCell>
        <mxCell id="sVMZJbU4VuqMhcMFcMYX-196" value="&lt;b&gt;Vodi&lt;/b&gt;" style="text;html=1;align=center;verticalAlign=middle;resizable=0;points=[];autosize=1;strokeColor=none;fillColor=none;" vertex="1" parent="1">
          <mxGeometry x="290" y="440" width="50" height="30" as="geometry" />
        </mxCell>
        <mxCell id="sVMZJbU4VuqMhcMFcMYX-197" value="&lt;b&gt;Gostuje&lt;/b&gt;" style="text;html=1;align=center;verticalAlign=middle;resizable=0;points=[];autosize=1;strokeColor=none;fillColor=none;" vertex="1" parent="1">
          <mxGeometry x="515" y="398" width="70" height="30" as="geometry" />
        </mxCell>
      </root>
    </mxGraphModel>
  </diagram>
</mxfile>
